<?xml version="1.0" encoding="UTF-8" standalone="no"?>
<!-- Created with Inkscape (http://www.inkscape.org/) -->

<svg
   xmlns:dc="http://purl.org/dc/elements/1.1/"
   xmlns:cc="http://creativecommons.org/ns#"
   xmlns:rdf="http://www.w3.org/1999/02/22-rdf-syntax-ns#"
   xmlns:svg="http://www.w3.org/2000/svg"
   xmlns="http://www.w3.org/2000/svg"
   xmlns:sodipodi="http://sodipodi.sourceforge.net/DTD/sodipodi-0.dtd"
   xmlns:inkscape="http://www.inkscape.org/namespaces/inkscape"
   width="459.72"
   height="424.66"
   id="svg2"
   version="1.1"
   inkscape:version="0.48.5 r10040"
   sodipodi:docname="gears.png">
  <defs
     id="defs4" />
  <sodipodi:namedview
     id="base"
     pagecolor="#ffffff"
     bordercolor="#666666"
     borderopacity="1.0"
     inkscape:pageopacity="0.0"
     inkscape:pageshadow="2"
     inkscape:zoom="0.98994949"
     inkscape:cx="85.36032"
     inkscape:cy="235.13867"
     inkscape:document-units="px"
     inkscape:current-layer="layer1"
     showgrid="false"
     inkscape:window-width="1920"
     inkscape:window-height="1110"
     inkscape:window-x="0"
     inkscape:window-y="27"
     inkscape:window-maximized="1"
     fit-margin-top="0"
     fit-margin-left="0"
     fit-margin-right="0"
     fit-margin-bottom="0" />
  <metadata
     id="metadata7">
    <rdf:RDF>
      <cc:Work
         rdf:about="">
        <dc:format>image/svg+xml</dc:format>
        <dc:type
           rdf:resource="http://purl.org/dc/dcmitype/StillImage" />
        <dc:title></dc:title>
      </cc:Work>
    </rdf:RDF>
  </metadata>
  <g
     inkscape:label="Layer 1"
     inkscape:groupmode="layer"
     id="layer1"
     transform="translate(-86.873127,-100.35517)">
    <path
       style="fill:#000000"
       d="m 288.94727,255.42766 c -3.20052,-1.84782 -7.28747,-0.75272 -9.13529,2.4478 L 264.8901,283.7209 c -13.14128,-4.39809 -26.75031,-6.08124 -40.1177,-5.26411 l -7.73228,-28.85728 c -0.47826,-1.78486 -1.59839,-3.19614 -3.07512,-4.04874 -1.47674,-0.85259 -3.28607,-1.13264 -5.07094,-0.65439 l -28.37209,7.57941 c -3.56971,0.9565 -5.67525,4.6034 -4.71875,8.17311 l 7.73229,28.85729 c -11.98506,5.97603 -22.92926,14.23819 -32.11089,24.6177 l -25.84545,-14.92188 c -3.20052,-1.84782 -7.28747,-0.75272 -9.13529,2.4478 L 101.772,327.06224 c -1.847819,3.20052 -0.75272,7.28747 2.4478,9.13529 l 25.84544,14.92188 c -4.39809,13.14128 -6.08124,26.75031 -5.26411,40.1177 l -28.857282,7.73228 c -3.569711,0.95651 -5.659626,4.57634 -4.703125,8.14606 l 7.606466,28.38771 c 0.956501,3.56971 4.576341,5.65963 8.146051,4.70313 l 28.85729,-7.73229 c 5.97603,11.98506 14.2382,22.92926 24.6177,32.11089 l -14.92188,25.84545 c -1.84782,3.20052 -0.75272,7.28747 2.4478,9.13529 l 25.43949,14.6875 c 3.20052,1.84782 7.26041,0.7371 9.10823,-2.46342 l 14.92188,-25.84544 c 13.14128,4.39809 26.75031,6.08124 40.1177,5.2641 l 7.73229,28.85729 c 0.9565,3.56971 4.6034,5.67525 8.17311,4.71875 l 28.36065,-7.62209 c 3.56971,-0.9565 5.65963,-4.57634 4.70313,-8.14605 l -7.73229,-28.85729 c 11.98506,-5.97603 22.92926,-14.2382 32.11089,-24.6177 l 25.87251,14.9375 c 3.20052,1.84782 7.26041,0.7371 9.10823,-2.46342 l 14.67188,-25.41243 c 1.84782,-3.20052 0.77979,-7.27185 -2.42073,-9.11967 l -25.87251,-14.9375 c 4.39809,-13.14128 6.08124,-26.75031 5.26411,-40.1177 L 366.41,370.69577 c 3.56971,-0.9565 5.67525,-4.6034 4.71875,-8.17311 l -7.59503,-28.34503 c -0.47825,-1.78486 -1.62544,-3.21176 -3.10218,-4.06436 -1.47674,-0.85259 -3.28607,-1.13264 -5.07093,-0.65439 l -28.85729,7.73229 c -5.97603,-11.98506 -14.23819,-22.92926 -24.6177,-32.11089 l 14.92188,-25.84545 c 1.84782,-3.20052 0.77979,-7.27185 -2.42073,-9.11967 l -25.4395,-14.6875 z m -27.72919,77.34087 c 28.74733,16.59728 38.60456,53.38494 22.00728,82.13227 -16.59728,28.74734 -53.36932,38.5775 -82.11665,21.98022 -28.74734,-16.59728 -38.59312,-53.34226 -21.99584,-82.08959 16.59728,-28.74733 53.35788,-38.62018 82.10521,-22.0229 z"
       id="rect2985-6"
       inkscape:connector-curvature="0" />
    <path
       sodipodi:type="arc"
       style="color:#000000;fill:none;stroke-width:1;stroke-linecap:butt;stroke-linejoin:miter;stroke-miterlimit:4;stroke-opacity:1;stroke-dasharray:none;stroke-dashoffset:0;marker:none;visibility:visible;display:inline;overflow:visible;enable-background:accumulate"
       id="path4095"
       sodipodi:cx="137.38075"
       sodipodi:cy="106.8594"
       sodipodi:rx="50.507626"
       sodipodi:ry="50.507626"
       d="m 187.88838,106.8594 c 0,27.89459 -22.61304,50.50762 -50.50763,50.50762 -27.89459,0 -50.507623,-22.61303 -50.507623,-50.50762 0,-27.894593 22.613033,-50.507628 50.507623,-50.507628 27.89459,0 50.50763,22.613035 50.50763,50.507628 z" />
    <path
       inkscape:connector-curvature="0"
       id="path4106"
       d="m 499.03987,129.72631 c -2.36851,-2.27882 -6.16153,-2.32075 -8.47827,-0.0937 l -18.70856,17.98421 c -10.43451,-6.70933 -21.8792,-11.27357 -33.67021,-13.70589 l -0.29601,-25.75638 c -0.0183,-1.59308 -0.67718,-3.02536 -1.77003,-4.07683 -1.09285,-1.05146 -2.60191,-1.70501 -4.25841,-1.72331 l -26.32647,-0.31004 c -3.31297,-0.0366 -5.95283,2.50103 -5.91621,5.68716 l 0.29602,25.7564 c -11.73808,2.17222 -23.08075,6.48459 -33.36366,12.96494 l -19.12677,-18.40241 c -2.36852,-2.27883 -6.16153,-2.32075 -8.47827,-0.0937 l -18.39513,17.6829 c -2.31673,2.22704 -2.27479,5.87482 0.0937,8.15365 l 19.12675,18.40242 c -6.74289,9.88629 -11.23198,20.7927 -13.49589,32.08033 l -26.78185,-0.29602 c -3.31297,-0.0366 -5.93324,2.48219 -5.89662,5.66832 l 0.29121,25.33729 c 0.0366,3.18612 2.71545,5.76351 6.02843,5.80014 l 26.78185,0.29601 c 2.52397,11.34055 7.26494,22.34898 14.23683,32.38687 l -18.70857,17.98422 c -2.31673,2.22704 -2.27481,5.87482 0.0937,8.15365 l 18.82633,18.11338 c 2.36852,2.2788 6.1415,2.30147 8.45825,0.0744 l 18.70856,-17.9842 c 10.43452,6.70932 21.87919,11.27357 33.6702,13.70587 l 0.29604,25.75641 c 0.0366,3.18612 2.73547,5.78278 6.04845,5.8194 l 26.32602,0.27194 c 3.31298,0.0366 5.93325,-2.4822 5.89664,-5.66833 l -0.29603,-25.7564 c 11.73808,-2.17223 23.08074,-6.48462 33.36366,-12.96495 l 19.14679,18.42169 c 2.36852,2.27883 6.14151,2.30148 8.45824,0.0744 l 18.39513,-17.68291 c 2.31673,-2.22703 2.29485,-5.85555 -0.0737,-8.13439 l -19.14678,-18.42167 c 6.7429,-9.8863 11.23199,-20.7927 13.49589,-32.08033 l 26.78185,0.29601 c 3.31297,0.0366 5.95282,-2.50102 5.9162,-5.68715 l -0.29076,-25.29919 c -0.0183,-1.59306 -0.6972,-3.04462 -1.79006,-4.09609 -1.09284,-1.05146 -2.60191,-1.705 -4.2584,-1.72331 l -26.78186,-0.29602 c -2.52397,-11.34055 -7.26491,-22.34899 -14.23682,-32.38687 l 18.70857,-17.98421 c 2.31674,-2.22704 2.29484,-5.85556 -0.0737,-8.13438 l -18.82635,-18.11338 z m -41.28648,57.75487 c 21.27428,20.46861 21.65166,53.30322 0.84253,73.30668 -20.80912,20.00346 -54.93141,19.60725 -76.20569,-0.86136 -21.27428,-20.46861 -21.65121,-53.26513 -0.84208,-73.26858 20.80913,-20.00345 54.93096,-19.64534 76.20524,0.82326 z"
       style="fill:#000000" />
  </g>
</svg>
