<svg width="111.35" height="130.85" version="1.1" viewBox="0 0 111.35 130.85" xmlns="http://www.w3.org/2000/svg"><defs><clipPath><path d="m464.75 512.39z"/></clipPath><clipPath id="clipPath36"><path d="m24.125 659.76h17.375v-37.709h-17.375z"/></clipPath><clipPath><path d="m148.62 201.76z"/></clipPath><clipPath id="clipPath176"><path d="M 0,841.89 H 595.28 V 0 H 0 Z"/></clipPath><clipPath id="clipPath200"><path d="m284.96 234.64h131.13v-82.125h-131.13z"/></clipPath><clipPath id="clipPath216"><path d="m276.33 247.68h17.333v-14.517h-17.333z"/></clipPath><clipPath id="clipPath232"><path d="m254.67 247.72h19.5v-26.042h-19.5z"/></clipPath><clipPath id="clipPath252"><path d="m248.21 227.35h33.167v-19h-33.167z"/></clipPath><clipPath id="clipPath508"><path d="m34.584 724.49h95.459v95.813h-95.459z"/></clipPath><clipPath id="clipPath528"><path d="m34.584 724.49h95.459v95.813h-95.459z"/></clipPath><clipPath id="clipPath536"><path d="m90.115 776.02h7.875v-2.338h-7.875z"/></clipPath><clipPath id="clipPath564"><path d="m34.584 724.49h95.459v95.813h-95.459z"/></clipPath><clipPath id="clipPath572"><path d="m86.469 774.1h9.9063v-2.282h-9.9063z"/></clipPath><clipPath id="clipPath588"><path d="m34.584 820.31 0.25-95.167 95.209-0.646v95.813z"/></clipPath><clipPath id="clipPath600"><path d="M 0,841.89 H 595.28 V 0 H 0 Z"/></clipPath><clipPath id="clipPath608"><path d="m93.299 814.02h22.293v-8.079h-22.293z"/></clipPath><clipPath id="clipPath624"><path d="m95.959 807.14h20.291v-14.488h-20.291z"/></clipPath><clipPath id="clipPath640"><path d="m87.334 820.18h17.334v-14.517h-17.334z"/></clipPath><clipPath id="clipPath656"><path d="m65.666 820.22h19.5v-26.042h-19.5z"/></clipPath><clipPath id="clipPath676"><path d="m59.209 799.85h33.166v-19h-33.166z"/></clipPath><clipPath id="clipPath184-7"><path d="m282.3 241.52h22.293v-8.079h-22.293z"/></clipPath></defs><g transform="matrix(1.25 0 0 -1.25 -145.97 -19.592)"><g clip-path="url(#clipPath36)" opacity=".7"><g transform="translate(41.5 648.76)"><path d="m0 0-4.916-26.709-12.459 37.709z" fill="#fff"/></g></g><g clip-path="url(#clipPath508)"><g transform="translate(77.924 746.25)"><path d="m0 0c3.475 0 5.951 0.608 7.428 1.824 1.564 1.216 2.562 3.475 2.996 6.776 0.088 0.608 0.131 1.476 0.131 2.606 0 2.084-0.653 3.562-1.955 4.43-1.215 0.869-3.344 1.302-6.385 1.302h-13.551l-2.605-16.938zm-10.59 73.889 22.791 0.08c9.815 0 16.639-1.611 20.373-5.172 3.822-3.562 5.735-8.643 5.735-15.245 0-2.432-0.174-4.734-0.522-6.906-0.781-4.603-2.736-8.686-5.863-12.248-3.041-3.474-6.977-5.747-11.842-6.79 5.039-1.389 8.627-3.546 10.799-6.5 2.258-2.866 3.389-7.036 3.389-12.508 0-2.606-0.262-5.429-0.784-8.469-1.302-8.339-4.994-14.246-11.074-17.721-5.994-3.388-15.051-4.353-26.168-4.353h-26.668z" fill="#272a7c"/></g><g transform="translate(85.846 794.97)"><path d="m0 0" fill="none" stroke="#fff" stroke-width="1.67"/></g><g transform="translate(50.025 738.84)"><path d="m0 0 13.947 30.269 34.018 0.768-12.559-43.434z" fill="#272a7c"/></g></g><g clip-path="url(#clipPath528)"><g clip-path="url(#clipPath536)" opacity=".99506"><g transform="translate(90.133 773.93)"><path d="m0 0 0.105 0.927-0.123 1.155 5.01-1.389 2.865-0.753-2.132-0.196z" fill="#fff"/></g></g><g transform="translate(31.467 718.21)"><path d="m0 0c0.217 0.834 0.174 0.932-0.385 0.846-0.422-0.065-0.683 0.075-0.793 0.426-0.164 0.527-0.445 0.644-1.496 0.621-0.746-0.018-1.189 1.155-0.857 2.268 0.918 3.081 4.418 7.136 17.109 19.822 2.381 2.38 4.5 4.613 4.707 4.961 0.262 0.44 0.299 1.042 0.121 1.966-0.14 0.733-0.228 1.808-0.191 2.389 0.072 1.168 0.851 1.881 12.396 11.358 6.955 5.708 7.243 5.978 9.192 8.608 2.189 2.953 3.332 4.149 5.437 5.689 4.094 2.995 9.174 3.01 12.123 0.035 1.08-1.09 0.533-3.523 1.518-3.802 0.598-0.169 1.07 0.011-0.68-0.781-2.515-1.203-3.119-2.15-3.658-5.88-1.477-10.21-3.334-13.947-9.029-18.172-2.024-1.5-3.055-2.004-6.713-3.286-8.94-3.132-12.969-5.456-17.797-10.268-10.211-10.173-12.076-11.904-15.77-14.633-2.158-1.593-4.273-2.944-4.701-3.003-0.73-0.1-0.763-0.05-0.533 0.836" fill="#46ac32"/></g><g transform="translate(31.467 718.21)"><path d="m0 0s-0.055-0.175-0.115-0.522c-4e-3 -0.083-0.031-0.197 0.041-0.282 0.078-0.08 0.215-0.064 0.34-0.058 0.265 1e-3 0.546 0.115 0.842 0.287 1.189 0.672 2.851 1.799 4.874 3.347 2.048 1.523 4.344 3.607 6.856 6.117 2.525 2.497 5.33 5.354 8.373 8.503 1.537 1.568 3.259 3.11 5.226 4.467 1.964 1.365 4.159 2.522 6.463 3.557 2.303 1.038 4.749 1.943 7.182 2.875 1.215 0.476 2.389 0.982 3.447 1.669 0.272 0.164 0.522 0.358 0.785 0.536l0.795 0.604c0.519 0.411 1.036 0.827 1.526 1.269 1.989 1.743 3.566 3.855 4.52 6.349 0.974 2.482 1.515 5.243 1.947 8.016l0.302 2.126c0.102 0.733 0.213 1.481 0.417 2.26 0.202 0.77 0.519 1.634 1.115 2.395 0.605 0.767 1.363 1.266 2.082 1.653l0.508 0.264 0.286 0.136 0.243 0.113 0.464 0.218 0.157 0.083-0.021-0.013c-0.028-0.028-0.032-5e-3 -0.184-0.173-0.351 0.204-0.313-1.762 0.263-1.754 0.278-0.158 0.249-0.112 0.305-0.139 0.048-9e-3 -0.098 0.016-0.204 0.036l-0.209 0.047c-0.014 1e-3 -0.163 0.043-0.294 0.098-0.54 0.224-0.859 0.683-0.994 0.978-0.281 0.624-0.301 1.016-0.377 1.399-0.106 0.729-0.238 1.349-0.415 1.572-0.019 0.058-0.333 0.308-0.536 0.502-0.25 0.169-0.477 0.37-0.748 0.507-1.033 0.635-2.278 0.919-3.536 0.937-1.263-0.02-2.549-0.292-3.737-0.826-1.155-0.502-2.292-1.31-3.339-2.179-1.039-0.853-1.945-1.86-2.82-2.942-0.889-1.079-1.69-2.255-2.717-3.397-1.032-1.123-2.142-2.075-3.24-2.962-2.203-1.787-4.389-3.49-6.533-5.187-2.136-1.7-4.236-3.371-6.291-5.007-1.014-0.828-2.02-1.65-2.947-2.493-0.45-0.418-0.915-0.866-1.165-1.27-0.054-0.097-0.093-0.192-0.111-0.251-0.015-0.031-0.021-0.144-0.033-0.211l-6e-3 -0.184c-0.017-0.276 4e-3 -0.586 0.014-0.881 0.029-0.589 0.137-1.155 0.213-1.844 0.067-0.658-0.051-1.546-0.643-2.064-0.844-0.923-1.691-1.756-2.531-2.592-1.695-1.64-3.332-3.226-4.902-4.749-3.148-3.034-5.971-5.877-8.402-8.463-2.415-2.589-4.489-4.939-5.612-7.232-0.256-0.575-0.502-1.143-0.538-1.705-0.029-0.555 0.106-1.119 0.469-1.452 0.186-0.169 0.428-0.193 0.659-0.179 0.229 2e-3 0.451-8e-3 0.658-0.044 0.207-0.038 0.406-0.124 0.518-0.288 0.121-0.157 0.133-0.349 0.23-0.49 0.195-0.309 0.569-0.257 0.809-0.221 0.125 0.01 0.261 0.029 0.345-0.055 0.069-0.093 0.049-0.204 0.041-0.289-0.056-0.348-0.115-0.522-0.115-0.522s0.058 0.175 0.111 0.523c8e-3 0.084 0.024 0.195-0.041 0.283-0.081 0.08-0.216 0.061-0.341 0.05-0.236-0.037-0.618-0.095-0.824 0.222-0.099 0.143-0.115 0.338-0.232 0.486-0.11 0.158-0.302 0.239-0.505 0.275-0.206 0.034-0.426 0.043-0.654 0.039-0.221-0.018-0.489 5e-3 -0.682 0.182-0.381 0.343-0.521 0.918-0.496 1.483 0.033 0.578 0.275 1.144 0.529 1.729 1.115 2.318 3.181 4.678 5.522 7.341 2.365 2.656 5.154 5.536 8.158 8.716 1.508 1.581 3.079 3.229 4.705 4.935 0.797 0.857 1.625 1.74 2.388 2.645 0.734 0.652 0.154 1.856 0.053 3.189-0.023 0.33-0.06 0.647-0.054 1.002 2e-3 0.099-6e-3 0.143 4e-3 0.289 0.011 0.089 5e-3 0.135 0.031 0.257 0.045 0.252 0.129 0.452 0.221 0.636 0.396 0.693 0.871 1.137 1.334 1.617 0.939 0.923 1.916 1.788 2.906 2.664 1.993 1.721 4.03 3.479 6.101 5.268 2.075 1.778 4.203 3.578 6.296 5.419 1.049 0.927 2.081 1.837 2.945 2.834 0.855 0.993 1.648 2.199 2.552 3.359 0.899 1.17 1.901 2.342 3.075 3.353 1.168 0.979 2.394 1.895 3.898 2.574 1.457 0.666 3.069 1.038 4.716 1.071 1.643-3e-3 3.346-0.368 4.817-1.248 0.379-0.197 0.707-0.477 1.053-0.726 0.314-0.315 0.618-0.484 1.011-1.033 0.641-1.007 0.671-1.895 0.799-2.587 0.045-0.331 0.123-0.673 0.151-0.711 0.017-0.032-0.059 0.123-0.259 0.206-0.046 0.021-0.11 0.032-0.034 0.013l0.057-0.012 0.332-0.067c0.098-0.039 0.115-3e-3 0.431-0.186 0.625-0.013 0.655-2.041 0.271-1.867-0.182-0.202-0.224-0.206-0.289-0.26l-0.136-0.087c-0.137-0.079-0.231-0.124-0.325-0.171l-0.524-0.243-0.253-0.114-0.205-0.097c-0.162-0.08-0.338-0.163-0.46-0.233-1.182-0.605-1.673-1.233-2.016-2.518-0.329-1.227-0.504-2.707-0.762-4.121-0.525-2.876-1.129-5.733-2.293-8.466-0.598-1.353-1.352-2.651-2.262-3.809-0.908-1.16-1.955-2.17-3.045-3.068-0.544-0.453-1.104-0.868-1.664-1.277l-0.843-0.588c-0.303-0.19-0.595-0.395-0.905-0.567-1.228-0.728-2.533-1.223-3.783-1.657-2.516-0.849-4.934-1.635-7.24-2.565-2.302-0.926-4.481-1.966-6.442-3.216-1.967-1.243-3.714-2.684-5.297-4.175-6.344-6.003-11.453-11.244-15.579-14.27-2.038-1.534-3.709-2.648-4.905-3.311-0.297-0.169-0.586-0.284-0.851-0.281-0.125-6e-3 -0.263-0.022-0.346 0.062-0.072 0.091-0.045 0.204-0.039 0.288 0.062 0.347 0.119 0.521 0.119 0.521" fill="#fff"/></g><g transform="translate(87.896 774.08)"><path d="m0 0-0.625-1.062-0.812-1.219 4.757 1.134 5.149 1.022-4.49 0.138z" fill="#80cc28"/></g></g><g clip-path="url(#clipPath564)"><g clip-path="url(#clipPath572)" opacity=".7"><g transform="translate(87.906 774.1)"><path d="m0 0-0.625-1.062-0.812-1.219 4.759 1.134 5.147 1.022-4.448-0.021z" fill="#a7a5a6"/></g></g></g><g clip-path="url(#clipPath588)"><g transform="translate(87.85 774)"><path d="m0 0 0.297 0.75 0.125 0.703 3.353-0.704 4.983-0.815 8e-3 4e-3 -4.719-0.016z" fill="#80cc28"/></g></g><g clip-path="url(#clipPath600)"><g clip-path="url(#clipPath608)" opacity=".8"><g transform="translate(93.299 807.69)"><path d="m0 0 18.207 6.329s1.422-1.484 2.543-3.662c1.27-2.463 1.543-4.417 1.543-4.417z" fill="#fff"/></g></g><g clip-path="url(#clipPath624)" opacity=".7"><g transform="translate(95.959 807.14)"><path d="m0 0 19.708-14.488s0.31 1.956 0.375 2.625c0.06 0.613 0.208 2.488 0.208 2.488z" fill="#fff"/></g></g><g clip-path="url(#clipPath640)" opacity=".5"><g transform="translate(104.67 818.35)"><path d="m0 0s-2.855 0.979-5.875 1.354c-3.111 0.387-5.896 0.475-5.896 0.475l-5.563-14.517z" fill="#fff"/></g></g><g clip-path="url(#clipPath656)" opacity=".5"><g transform="translate(85.166 794.18)"><path d="m0 0-19.5 18.083 1.668 7.875 9.25 0.084z" fill="#fff"/></g></g><g transform="translate(84.688 774.89)"><path d="m0 0c0-0.76-0.615-1.375-1.375-1.375s-1.375 0.615-1.375 1.375 0.615 1.375 1.375 1.375 1.375-0.615 1.375-1.375" fill="#283172"/></g><g clip-path="url(#clipPath676)" opacity=".8"><g transform="translate(92.375 789.56)"><path d="m0 0-33.166-8.709 3.916 19z" fill="#fff"/></g></g><g transform="translate(92.053 773.09)"><path d="m0 0 4.375 0.875 1.672-0.095-8.078-2.436z" fill="#fff"/></g><g transform="translate(105.52 798.61)"><path d="m0 0c0-6.902-5.598-12.5-12.5-12.5-6.904 0-12.5 5.598-12.5 12.5 0 6.904 5.596 12.5 12.5 12.5 6.902 0 12.5-5.596 12.5-12.5" fill="#fff"/></g><g transform="translate(101.79 798.61)"><path d="m0 0c0-4.846-3.93-8.775-8.775-8.775-4.846 0-8.776 3.929-8.776 8.775 0 4.847 3.93 8.775 8.776 8.775 4.845 0 8.775-3.928 8.775-8.775" fill="#46ac32"/></g><g transform="translate(101.79 798.61)"><path d="m0 0c0-4.846-3.93-8.775-8.775-8.775-4.846 0-8.776 3.929-8.776 8.775 0 4.847 3.93 8.775 8.776 8.775 4.845 0 8.775-3.928 8.775-8.775z" fill="none" stroke="#46ac32" stroke-miterlimit="10" stroke-width=".2"/></g></g><g><path d="m158.72-113.09c-7.8637-0.0199-15.771 0.29172-23.594 0.0625 6.6143 31.94 13.234 63.902 19.844 95.844l22.781 0.0625c8.8446-0.0414 19.47-0.73051 23.906-9.8125 5.4695-12.182 1.2975-29.652-11.719-35.188-6.6913-0.71824-0.0161-3.0911 2.5312-4.125 8.0634-5.3155 8.2919-16.257 6.5-24.781-0.72863-9.4471-7.6968-17.694-16.844-20.094-7.7174-1.5903-15.543-1.9488-23.406-1.9688zm44.875 10.844c-57.876-12.062-28.938-6.0312 0 0z" fill="#272a7c"/><path d="m133.51-114.59 0.375 1.8125 2.6875 13.062c0.24709 0.98024 0.5079 2.4396 0.78125 3.5938l16.375 79.156 0.21875 1.1875h1.2188c8.1042 0.01559 16.208 0.09375 24.312 0.09375l-0.14142 0.0082c9.1575-0.15822 15.9-1.6803 19.906-5.5 4.1613-3.8782 6.3289-9.5242 6.3289-16.414 0-2.5052-0.17058-4.8988-0.53125-7.1562v-0.03125c-0.82713-4.8687-2.9246-9.2163-6.2188-12.969-2.2761-2.6002-5.0891-4.5379-8.3125-5.875 3.1278-1.3784 5.5973-3.1824 7.3125-5.5 9e-3 -0.01111 0.0225-0.02011 0.0312-0.03125 2.5278-3.2293 3.6875-7.7496 3.6875-13.406 0-2.6938-0.28285-5.5873-0.8125-8.6875-2e-3 -0.01051 2e-3 -0.02074 0-0.03125-1.3577-8.6432-5.3313-15.077-11.812-18.781-6.452-3.6468-15.702-4.5313-26.906-4.5312h-26.656-1.8438zm3.6875 3h24.812c11.031-8e-5 19.901 1.0272 25.438 4.1562 5.6709 3.2412 9.0908 8.6375 10.344 16.656 0.50854 2.9673 0.75 5.7103 0.75 8.2188 0 5.2679-1.0926 9.0935-3.0625 11.594l-0.0312 0.03125c-1.9113 2.5995-5.1686 4.6058-10 5.9375l0.0937 2.9062c4.5878 0.9836 8.1652 3.1053 11 6.3438 2.9598 3.3716 4.7944 7.1314 5.5312 11.469 0.33335 2.0865 0.5 4.3287 0.5 6.6875 0 6.3138-1.7673 10.91-5.25 14.156-3.2359 3.0852-9.6896 4.75-19.344 4.75h-1.5l-20.062-0.09375-16.188-78.188-0.0312-0.1875-0.0625-0.15625-0.1875-0.375 0.125-0.03125-0.28125-1.3125-2.5938-12.562z" color="#000000" fill="#272a7c" style="text-decoration-line:none;text-indent:0;text-transform:none"/><path d="m172.48-57.61c-5.7724-0.05366-9.8489-4.9002-12.9-9.2311-4.2847-4.6495-9.5947-8.2157-14.338-12.376-2.0556-2.2034-5.723-3.6492-6.2704-6.8103 1.5612-3.7722-1.9758-5.9844-4.1993-8.3637-5.5641-5.7428-11.561-11.159-16.269-17.656-1.4999-1.6742-2.2363-5.3234 0.91933-5.1653 0.97623-0.91876 1.7087-0.92383 1.434-2.4822 2.8963 0.99146 5.2543 3.2481 7.7102 5.0648 6.2321 5.1253 11.34 11.486 17.654 16.504 5.3348 4.0846 12.007 5.5596 18.005 8.3081 4.8857 2.7559 8.7627 7.3879 9.8458 12.979 1.1367 3.729 0.79263 8.1548 3.0823 11.328 3.2324 0.85569 6.6119 1.411 9.85 2.125-2.7112 0.43124-5.4225 0.86232-8.1 1.475-0.20329 3.0425-3.8374 4.284-6.425 4.3z" fill="#46ac32" stroke="#fff" stroke-width=".88"/></g><g transform="translate(-100.8,-264)" clip-path="url(#clipPath176)"><g clip-path="url(#clipPath200)" opacity=".7"><g transform="translate(284.96 234.64)"><path d="m1.6971-0.91924 19.191-14.496 0.81001 3.2772-0.31568 3.6608z" fill="#fff"/></g></g><g clip-path="url(#clipPath216)" opacity=".5"/><g transform="matrix(1.048 0 0 1 -13.146 0)"><g clip-path="url(#clipPath232)" opacity=".5"><g transform="translate(274.17 221.68)"><path d="m-0.35355 0.70711-19.146 17.376 1.667 7.875 9.25 0.084z" fill="#fff"/></g></g></g><g transform="translate(273.69 202.39)"><path d="m0 0c0-0.76-0.615-1.375-1.375-1.375s-1.375 0.615-1.375 1.375 0.615 1.375 1.375 1.375 1.375-0.615 1.375-1.375" fill="#283172"/></g><g transform="matrix(1.0241 0 0 1 -6.7515 0)"><g clip-path="url(#clipPath252)" opacity=".8"><g transform="translate(281.38 217.06)"><path d="m-0.84853 0.6364-32.318-9.3454 3.917 19z" fill="#fff"/></g></g></g><g transform="matrix(1.0443 0 0 1 -13.602 .36176)"><g transform="rotate(2.2516 293.45 237.48)"><g clip-path="url(#clipPath184-7)" opacity=".8"><g transform="translate(282.3 235.19)"><path d="m-0.13254 0.075976 18.34 6.253s1.421-1.484 2.543-3.662c1.269-2.463 1.542-4.417 1.542-4.417z" fill="#fff"/></g></g></g></g><g transform="translate(290.45 227.91)" stroke="#fff" stroke-width=".88"><path d="m0-1.3879c0-4.846-3.93-8.775-8.775-8.775-4.846 0-8.776 3.929-8.776 8.775 0 4.847 3.93 8.775 8.776 8.775 4.845 0 8.775-3.928 8.775-8.775" fill="#46ac32" stroke="#fff" stroke-width=".88"/></g></g><path d="m187.25-16.979s-3.1368 0.62003-6.0164 0.71139c-3.1817 0.24345-6.2496-0.0198-6.2496-0.0198l-1.1779-16.074z" fill="#fff" opacity=".5"/></g></svg>
